<svg width="502" height="502" viewBox="0 0 502 502" fill="none" xmlns="http://www.w3.org/2000/svg">
<rect width="502" height="502" fill="white"/>
<path fill-rule="evenodd" clip-rule="evenodd" d="M166.2 239.798V139.05C166.2 131.29 159.91 125 152.15 125C144.39 125 138.1 131.29 138.1 139.05V239.798C121.729 245.584 110 261.198 110 279.55C110 297.902 121.729 313.516 138.1 319.302V363.85C138.1 371.61 144.39 377.9 152.15 377.9C159.91 377.9 166.2 371.61 166.2 363.85V319.302C182.571 313.516 194.3 297.902 194.3 279.55C194.3 261.198 182.571 245.584 166.2 239.798ZM152.15 265.5C144.39 265.5 138.1 271.79 138.1 279.55C138.1 287.31 144.39 293.6 152.15 293.6C159.91 293.6 166.2 287.31 166.2 279.55C166.2 271.79 159.91 265.5 152.15 265.5Z" fill="black"/>
<path fill-rule="evenodd" clip-rule="evenodd" d="M348.85 377.9C341.09 377.9 334.8 371.61 334.8 363.85V335.75C334.8 334.956 334.866 334.178 334.993 333.419C318.522 327.688 306.7 312.024 306.7 293.6C306.7 275.176 318.522 259.512 334.993 253.781C334.866 253.022 334.8 252.244 334.8 251.45V139.05C334.8 131.29 341.09 125 348.85 125C356.61 125 362.9 131.29 362.9 139.05V251.45C362.9 252.244 362.834 253.022 362.708 253.781C379.178 259.512 391 275.176 391 293.6C391 312.024 379.178 327.688 362.708 333.419C362.834 334.178 362.9 334.956 362.9 335.75V363.85C362.9 371.61 356.61 377.9 348.85 377.9ZM334.8 293.6C334.8 285.84 341.09 279.55 348.85 279.55C356.61 279.55 362.9 285.84 362.9 293.6C362.9 301.36 356.61 307.65 348.85 307.65C341.09 307.65 334.8 301.36 334.8 293.6Z" fill="black"/>
<path fill-rule="evenodd" clip-rule="evenodd" d="M208.35 209.3C208.35 190.948 220.079 175.335 236.45 169.548V139.05C236.45 131.29 242.74 125 250.5 125C258.26 125 264.55 131.29 264.55 139.05V169.548C280.921 175.335 292.65 190.948 292.65 209.3C292.65 227.724 280.828 243.388 264.357 249.119C264.484 249.878 264.55 250.656 264.55 251.45V363.85C264.55 371.61 258.26 377.9 250.5 377.9C242.74 377.9 236.45 371.61 236.45 363.85V251.45C236.45 250.656 236.516 249.878 236.642 249.119C220.171 243.388 208.35 227.724 208.35 209.3ZM236.45 209.3C236.45 201.54 242.74 195.25 250.5 195.25C258.26 195.25 264.55 201.54 264.55 209.3C264.55 217.06 258.26 223.35 250.5 223.35C242.74 223.35 236.45 217.06 236.45 209.3Z" fill="black"/>
</svg>
