<svg width="502" height="502" viewBox="0 0 502 502" fill="none" xmlns="http://www.w3.org/2000/svg">
<rect width="502" height="502" fill="white"/>
<path d="M422.061 135.657H170.192V274.271H422.061V135.657Z" fill="#8BBE4D"/>
<path d="M422.069 135.657H295.758V274.271H422.069V135.657Z" fill="#5A9449"/>
<path d="M296.131 253.359C322.859 253.359 344.526 231.692 344.526 204.964C344.526 178.236 322.859 156.569 296.131 156.569C269.403 156.569 247.736 178.236 247.736 204.964C247.736 231.692 269.403 253.359 296.131 253.359Z" fill="#528443"/>
<path d="M433.725 274.27V135.658C433.725 129.219 428.507 124.001 422.069 124.001H170.197C163.759 124.001 158.54 129.219 158.54 135.658V274.27C158.54 280.708 163.759 285.926 170.197 285.926H422.069C428.507 285.927 433.725 280.708 433.725 274.27ZM181.853 227.298V182.63C199.214 178.335 212.874 164.676 217.168 147.315H375.096C379.391 164.676 393.051 178.335 410.411 182.63V227.298C393.051 231.593 379.391 245.252 375.096 262.613H217.168C212.874 245.252 199.213 231.593 181.853 227.298Z" fill="#528443"/>
<path d="M422.068 124H296.132V147.314H375.096C379.391 164.675 393.051 178.335 410.411 182.629V227.297C393.051 231.592 379.391 245.252 375.096 262.612H296.132V285.926H422.068C428.506 285.926 433.725 280.708 433.725 274.27V135.657C433.725 129.219 428.507 124 422.068 124Z" fill="#366626"/>
<path d="M296.133 156.569V253.359C322.861 253.359 344.528 231.692 344.528 204.964C344.526 178.236 322.859 156.569 296.133 156.569Z" fill="#366626"/>
<path d="M377.676 181.56H125.807V320.174H377.676V181.56Z" fill="#8BBE4D"/>
<path d="M376.405 182.839H250.093V321.453H376.405V182.839Z" fill="#5A9449"/>
<path d="M250.466 300.541C277.194 300.541 298.861 278.874 298.861 252.146C298.861 225.418 277.194 203.751 250.466 203.751C223.738 203.751 202.071 225.418 202.071 252.146C202.071 278.874 223.738 300.541 250.466 300.541Z" fill="#528443"/>
<path d="M388.058 321.45V182.838C388.058 176.399 382.839 171.181 376.401 171.181H124.529C118.091 171.181 112.872 176.399 112.872 182.838V321.45C112.872 327.888 118.091 333.106 124.529 333.106H376.401C382.839 333.107 388.058 327.888 388.058 321.45ZM136.186 274.477V229.809C153.547 225.515 167.207 211.855 171.501 194.494H329.429C333.724 211.855 347.383 225.515 364.744 229.809V274.477C347.383 278.772 333.724 292.432 329.429 309.792H171.501C167.206 292.433 153.546 278.773 136.186 274.477Z" fill="#528443"/>
<path d="M376.401 171.181H250.465V194.495H329.429C333.724 211.856 347.383 225.515 364.744 229.81V274.478C347.383 278.773 333.724 292.432 329.429 309.793H250.465V333.107H376.401C382.839 333.107 388.058 327.888 388.058 321.45V182.838C388.058 176.399 382.839 171.181 376.401 171.181Z" fill="#366626"/>
<path d="M250.465 203.749V300.539C277.193 300.539 298.86 278.872 298.86 252.144C298.86 225.416 277.193 203.749 250.465 203.749Z" fill="#366626"/>
<path d="M332.802 225.77H80.9333V364.384H332.802V225.77Z" fill="#8BBE4D"/>
<path d="M331.527 227.049H205.216V365.663H331.527V227.049Z" fill="#5A9449"/>
<path d="M205.589 344.751C232.317 344.751 253.984 323.084 253.984 296.356C253.984 269.628 232.317 247.961 205.589 247.961C178.861 247.961 157.194 269.628 157.194 296.356C157.194 323.084 178.861 344.751 205.589 344.751Z" fill="#528443"/>
<path d="M343.187 365.66V227.048C343.187 220.61 337.968 215.391 331.53 215.391H79.6568C73.2187 215.391 68 220.61 68 227.048V365.66C68 372.098 73.2187 377.317 79.6568 377.317H331.529C337.967 377.318 343.187 372.098 343.187 365.66ZM91.3143 318.688V274.02C108.675 269.725 122.335 256.065 126.629 238.705H284.557C288.852 256.065 302.511 269.725 319.872 274.02V318.688C302.511 322.982 288.852 336.642 284.557 354.003H126.63C122.335 336.643 108.674 322.983 91.3143 318.688Z" fill="#528443"/>
<path d="M331.529 215.391H205.593V238.705H284.557C288.852 256.065 302.511 269.725 319.872 274.02V318.688C302.511 322.982 288.852 336.642 284.557 354.003H205.593V377.317H331.529C337.967 377.317 343.186 372.098 343.186 365.66V227.048C343.187 220.61 337.967 215.391 331.529 215.391Z" fill="#366626"/>
<path d="M205.593 247.959V344.75C232.321 344.75 253.988 323.082 253.988 296.355C253.988 269.627 232.321 247.959 205.593 247.959Z" fill="#366626"/>
</svg>
