<svg width="502" height="502" viewBox="0 0 502 502" fill="none" xmlns="http://www.w3.org/2000/svg">
<rect width="502" height="502" fill="white"/>
<path d="M155.75 125H128.679V251.334H155.75V125Z" fill="#E176AF"/>
<path d="M372.322 125H345.251V251.334H372.322V125Z" fill="#DC3B8B"/>
<path d="M115.143 291.941H61V319.012H115.143V291.941Z" fill="#E176AF"/>
<path d="M440.001 291.941H385.858V319.012H440.001V291.941Z" fill="#DC3B8B"/>
<path d="M106.119 299.139C106.119 342.509 141.276 377.667 184.647 377.667C212.241 377.667 236.495 363.422 250.5 341.896L141.891 233.286C120.365 247.291 106.119 271.544 106.119 299.139Z" fill="#E592BF"/>
<path d="M394.882 299.139C394.882 342.509 359.724 377.667 316.354 377.667C288.76 377.667 264.506 363.422 250.501 341.896L359.111 233.286C380.636 247.291 394.882 271.544 394.882 299.139Z" fill="#E176AF"/>
</svg>
