<svg xmlns="http://www.w3.org/2000/svg" xml:space="preserve" viewBox="0 0 94.488 94.488"><path d="M47.244 7.808C21.193 7.808 0 29.002 0 55.053 0 65.759 3.684 76.178 10.35 84.52l2.901-6.931c-4.404-6.646-6.809-14.5-6.809-22.535 0-22.5 18.304-40.802 40.802-40.802 22.497 0 40.802 18.302 40.802 40.802 0 8.339-2.591 16.475-7.297 23.271l2.882 6.906.168-.201c6.894-8.41 10.689-19.058 10.689-29.977 0-26.05-21.194-47.245-47.244-47.245"/><path d="m50.494 79.818-3.502 6.041-3.583-6.031-11.674.019-2.543 6.449 35.795-.06-2.697-6.438zM35.89 69.318l-1.699 4.308 5.526-.007-2.557-4.303zM75.744 66.328a31.75 31.75 0 0 0 3.078-13.586c0-17.412-14.167-31.579-31.578-31.579S15.666 35.33 15.666 52.742c0 4.392.939 8.705 2.68 12.678l2.481-5.926a27.3 27.3 0 0 1-.854-6.752c0-10.022 5.449-18.778 13.528-23.519l1.212-2.895.948 1.758c3.521-1.66 7.438-2.619 11.583-2.619 4.012 0 7.812.894 11.246 2.457l.652-1.392.89 2.136c8.606 4.592 14.483 13.656 14.483 24.072 0 2.674-.414 5.312-1.168 7.84zM56.598 69.285l-2.496 4.31 5.584-.012-1.801-4.3z"/><path d="M56.705 31.725c-2.859-1.413-5.967-2.276-9.363-2.276-3.449 0-6.796.887-9.688 2.338l1.653 3.068c2.397-1.185 5.184-1.92 8.034-1.92 2.867 0 5.473.743 7.881 1.941zM68.641 49.302A21.36 21.36 0 0 0 63.5 36.981zM29.887 37.23a21.38 21.38 0 0 0-5.14 12.321zM53.196 39.189c-1.747-1.04-3.527-1.647-5.702-1.647-2.732 0-4.255.543-5.938 1.487l1.543 2.864c1.229-.698 2.213-1.131 4.395-1.131 1.686 0 3.001.509 4.324 1.363zM45.518 46.382a3.46 3.46 0 0 1 2.123-.738c.817 0 1.564.294 2.164.765l.584-1.24a4.84 4.84 0 0 0-2.748-.857c-1.03 0-1.979.33-2.765.881z"/><path d="M47.914 54.738 34.895 30.576 11.406 86.68h16.107l8.59-21.782 10.871 18.291 10.604-18.291 9.126 21.782h15.569L59.057 31.022z"/></svg>