<svg width="35" height="32" viewBox="0 0 35 32" fill="none" xmlns="http://www.w3.org/2000/svg">
<path d="M32.1289 16C32.1289 23.6035 25.5123 29.7674 17.3503 29.7674V32C26.8359 32 34.5255 24.8366 34.5255 16H32.1289ZM17.3503 29.7674C9.18832 29.7674 2.5717 23.6035 2.5717 16H0.175171C0.175171 24.8366 7.86475 32 17.3503 32V29.7674ZM2.5717 16C2.5717 8.39646 9.18832 2.23256 17.3503 2.23256V0C7.86475 0 0.175171 7.16345 0.175171 16H2.5717ZM22.9422 19.3488C17.8686 19.3488 13.7555 15.5172 13.7555 10.7907H11.359C11.359 16.7503 16.5449 21.5814 22.9422 21.5814V19.3488ZM30.8113 15.2097C29.2007 17.6927 26.2785 19.3488 22.9422 19.3488V21.5814C27.152 21.5814 30.8359 19.4886 32.8626 16.3642L30.8113 15.2097ZM13.7555 10.7907C13.7555 7.68271 15.5333 4.96045 18.1987 3.45997L16.9594 1.54917C13.6055 3.4371 11.359 6.86897 11.359 10.7907H13.7555ZM17.3503 2.23256C17.2089 2.23256 17.0431 2.17314 16.9228 2.05645C16.8208 1.95761 16.7972 1.8641 16.7916 1.82628C16.7849 1.7799 16.7882 1.6455 16.9594 1.54917L18.1987 3.45997C19.0026 3.00748 19.2611 2.17895 19.1666 1.52747C19.0685 0.850247 18.4952 0 17.3503 0V2.23256ZM32.8626 16.3642C32.759 16.5236 32.6148 16.5267 32.5651 16.5205C32.5245 16.5153 32.424 16.4932 32.3179 16.3983C32.1927 16.2862 32.1289 16.1317 32.1289 16H34.5255C34.5255 14.9334 33.6127 14.3994 32.8857 14.308C32.1864 14.2199 31.297 14.4607 30.8113 15.2097L32.8626 16.3642Z" fill="white"/>
<path d="M31.8369 15.7869L30.8113 15.2097M30.8113 15.2097C29.2007 17.6927 26.2785 19.3488 22.9422 19.3488M30.8113 15.2097L32.8626 16.3642M30.8113 15.2097C31.297 14.4607 32.1864 14.2199 32.8857 14.308C33.6127 14.3994 34.5255 14.9334 34.5255 16M17.5791 2.50457L16.9594 1.54917M16.9594 1.54917L18.1987 3.45997M16.9594 1.54917C13.6055 3.4371 11.359 6.86897 11.359 10.7907M16.9594 1.54917C16.7882 1.6455 16.7849 1.7799 16.7916 1.82628C16.7972 1.8641 16.8208 1.95761 16.9228 2.05645C17.0431 2.17314 17.2089 2.23256 17.3503 2.23256M32.1289 16C32.1289 23.6035 25.5123 29.7674 17.3503 29.7674M32.1289 16H34.5255M32.1289 16C32.1289 16.1317 32.1927 16.2862 32.3179 16.3983C32.424 16.4932 32.5245 16.5153 32.5651 16.5205C32.6148 16.5267 32.759 16.5236 32.8626 16.3642M17.3503 29.7674V32M17.3503 29.7674C9.18832 29.7674 2.5717 23.6035 2.5717 16M17.3503 32C26.8359 32 34.5255 24.8366 34.5255 16M17.3503 32C7.86475 32 0.175171 24.8366 0.175171 16M2.5717 16H0.175171M2.5717 16C2.5717 8.39646 9.18832 2.23256 17.3503 2.23256M0.175171 16C0.175171 7.16345 7.86475 0 17.3503 0M17.3503 2.23256V0M17.3503 0C18.4952 0 19.0685 0.850247 19.1666 1.52747C19.2611 2.17895 19.0026 3.00748 18.1987 3.45997M22.9422 19.3488C17.8686 19.3488 13.7555 15.5172 13.7555 10.7907M22.9422 19.3488V21.5814M13.7555 10.7907H11.359M13.7555 10.7907C13.7555 7.68271 15.5333 4.96045 18.1987 3.45997M11.359 10.7907C11.359 16.7503 16.5449 21.5814 22.9422 21.5814M22.9422 21.5814C27.152 21.5814 30.8359 19.4886 32.8626 16.3642" stroke="white" stroke-width="0.00064"/>
</svg>
