<svg width="20" height="20" viewBox="0 0 20 20" fill="none" xmlns="http://www.w3.org/2000/svg">
<path d="M20 10C20 15.5225 15.5225 20 9.99984 20C4.47715 20 0 15.5225 0 10C0 4.47722 4.47715 0 9.99984 0C15.5225 0 20 4.47722 20 10Z" fill="#E6E9ED"/>
<path d="M15.4155 13.3337C15.4155 14.0234 14.8564 14.5837 14.1655 14.5837C13.4752 14.5837 12.9155 14.0234 12.9155 13.3337C12.9155 12.6428 13.4752 12.0837 14.1655 12.0837C14.8564 12.0837 15.4155 12.6428 15.4155 13.3337Z" fill="#CCD1D9"/>
<path d="M10.4155 4.16648C10.4155 4.85712 9.85611 5.4165 9.16549 5.4165C8.47522 5.4165 7.91553 4.85712 7.91553 4.16648C7.91553 3.4762 8.47522 2.9165 9.16549 2.9165C9.85611 2.9165 10.4155 3.4762 10.4155 4.16648Z" fill="#CCD1D9"/>
<path d="M15.8329 7.50005C15.8329 8.42045 15.0865 9.1666 14.166 9.1666C13.2456 9.1666 12.4995 8.42045 12.4995 7.50005C12.4995 6.57964 13.2456 5.8335 14.166 5.8335C15.0864 5.8335 15.8329 6.5796 15.8329 7.50005Z" fill="#CCD1D9"/>
<path d="M10.8329 15.8338C10.8329 16.7542 10.0867 17.5 9.16604 17.5C8.24565 17.5 7.49951 16.7542 7.49951 15.8338C7.49951 14.9128 8.24565 14.1663 9.16604 14.1663C10.0867 14.1663 10.8329 14.9128 10.8329 15.8338Z" fill="#CCD1D9"/>
<path d="M8.33061 9.99982C8.33061 11.6105 7.02479 12.9161 5.41408 12.9161C3.80338 12.9161 2.49756 11.6105 2.49756 9.99982C2.49756 8.38913 3.80338 7.08325 5.41408 7.08325C7.02479 7.08325 8.33061 8.38913 8.33061 9.99982Z" fill="#CCD1D9"/>
</svg>
