<svg width="20" height="19" viewBox="0 0 20 19" fill="none" xmlns="http://www.w3.org/2000/svg">
<path d="M18.6523 13.7278V16.287C18.6533 16.5245 18.6045 16.7597 18.5091 16.9774C18.4138 17.1951 18.2739 17.3905 18.0985 17.5511C17.9231 17.7117 17.716 17.834 17.4905 17.9101C17.265 17.9862 17.026 18.0145 16.7889 17.9931C14.1587 17.7078 11.6322 16.8109 9.4124 15.3742C7.34716 14.0644 5.59621 12.3169 4.28387 10.2558C2.83931 8.03034 1.94034 5.49657 1.65977 2.85976C1.63841 2.62386 1.6665 2.3861 1.74225 2.16163C1.81801 1.93716 1.93976 1.73089 2.09977 1.55596C2.25977 1.38102 2.45453 1.24125 2.67162 1.14555C2.88872 1.04985 3.1234 1.00031 3.36073 1.00008H5.925C6.33982 0.996008 6.74197 1.14261 7.05649 1.41257C7.37102 1.68252 7.57645 2.05741 7.63451 2.46735C7.74274 3.28635 7.94346 4.09049 8.23284 4.86445C8.34784 5.16978 8.37273 5.50162 8.30456 5.82063C8.23639 6.13965 8.07801 6.43248 7.8482 6.66441L6.76266 7.7478C7.97945 9.88348 9.75127 11.6518 11.8912 12.8662L12.9767 11.7828C13.2091 11.5534 13.5025 11.3954 13.8222 11.3273C14.1418 11.2593 14.4743 11.2841 14.7803 11.3989C15.5558 11.6877 16.3615 11.888 17.1821 11.9961C17.5973 12.0545 17.9765 12.2632 18.2476 12.5825C18.5187 12.9018 18.6627 13.3094 18.6523 13.7278Z" stroke="white" stroke-width="2" stroke-linecap="round" stroke-linejoin="round"/>
</svg>
