<svg width="88" height="80" viewBox="0 0 88 80" fill="none" xmlns="http://www.w3.org/2000/svg">
<path d="M48.8938 80H87.4653V35.5556H72.0367V31.5556L72.4224 29.5556L72.8081 28L74.351 23.5556L77.8224 17.5556L82.451 12.6667L87.4653 9.55556L85.5368 4.88889L83.6082 0L80.1367 0.888885L75.701 2.44444L67.7938 6.66666L60.8509 13.1111L56.2224 19.1111L52.5581 26.6667L50.6295 32.2222L49.4723 37.7778L48.8938 41.5556L48.8938 80Z" fill="#E376DC" fill-opacity="0.6"/>
<path d="M0.000202179 80H38.5718L38.5718 35.5556H23.1431L23.1431 31.5556L23.5289 29.5556L23.9146 28L25.4574 23.5556L28.9289 17.5556L33.5575 12.6667L38.5718 9.55556L36.6432 4.88889L34.7146 0L31.2432 0.888885L26.8074 2.44444L18.9003 6.66666L11.9574 13.1111L7.3288 19.1111L3.6645 26.6667L1.73592 32.2222L0.578777 37.7778L0.000202179 41.5556L0.000202179 80Z" fill="#E376DC" fill-opacity="0.6"/>
</svg>
