<svg width="35" height="37" viewBox="0 0 35 37" fill="none" xmlns="http://www.w3.org/2000/svg">
<path d="M10.3821 16.1294C10.1007 16.9635 9.94751 17.8611 9.94751 18.7961C9.94751 23.2144 13.3673 26.7961 17.5857 26.7961C21.8041 26.7961 25.2239 23.2144 25.2239 18.7961C25.2239 14.3779 21.8041 10.7961 17.5857 10.7961C16.6929 10.7961 15.8359 10.9566 15.0396 11.2514" stroke="white" stroke-width="4" stroke-linecap="round"/>
<path d="M17.5857 2.79608V5.99608" stroke="white" stroke-width="4" stroke-linecap="round"/>
<path d="M17.5857 31.5961V34.7961" stroke="white" stroke-width="4" stroke-linecap="round"/>
<path d="M5.3646 18.7961H2.30933" stroke="white" stroke-width="4" stroke-linecap="round"/>
<path d="M32.862 18.7961H29.8068" stroke="white" stroke-width="4" stroke-linecap="round"/>
<path d="M29.4673 6.35236L26.0729 9.60288" stroke="white" stroke-width="4" stroke-linecap="round"/>
<path d="M5.70392 6.35236L9.09835 9.60288" stroke="white" stroke-width="4" stroke-linecap="round"/>
<path d="M9.09862 27.6852L5.70386 31.2408" stroke="white" stroke-width="4" stroke-linecap="round"/>
<path d="M29.4673 31.2398L26.0729 27.6843" stroke="white" stroke-width="4" stroke-linecap="round"/>
</svg>
