<svg width="200" height="200" viewBox="0 0 200 200" fill="none" xmlns="http://www.w3.org/2000/svg">
<g clip-path="url(#clip0_410_21)">
<mask id="mask0_410_21" style="mask-type:luminance" maskUnits="userSpaceOnUse" x="0" y="0" width="200" height="200">
<path d="M100 200C155.228 200 200 155.228 200 100C200 44.7715 155.228 0 100 0C44.7715 0 0 44.7715 0 100C0 155.228 44.7715 200 100 200Z" fill="white"/>
</mask>
<g mask="url(#mask0_410_21)">
<path d="M101.031 47.3435C72.6407 47.3435 49.6431 70.1825 49.6431 98.4141C49.6431 109.516 53.291 119.984 59.4765 128.39L52.9738 147.423L72.7993 141.079C80.8881 146.471 90.7216 149.485 101.189 149.485C129.58 149.485 152.736 126.646 152.736 98.4141C152.577 70.1825 129.421 47.3435 101.031 47.3435ZM131.166 119.508C129.897 122.998 123.711 126.328 121.015 126.646C118.319 126.963 118.319 128.866 102.934 122.998C87.7081 116.971 78.0332 101.586 77.2402 100.476C76.4472 99.5243 71.0546 92.3871 71.0546 85.0913C71.0546 77.7955 74.8611 74.1476 76.2886 72.7202C77.716 71.2928 79.3021 70.8169 80.2537 70.8169C81.2053 70.8169 82.3156 70.9755 83.1086 70.9755C84.0602 70.9755 85.1704 70.4997 86.4393 73.5132C87.7081 76.5267 90.7216 83.8225 91.0388 84.6155C91.356 85.4085 91.6732 86.2016 91.1974 87.1532C90.7216 88.1048 90.4044 88.7392 89.77 89.6908C88.9769 90.4839 88.1839 91.5941 87.5495 92.2285C86.7565 93.0215 85.9634 93.8146 86.9151 95.242C87.8667 96.6694 90.8802 101.586 95.3211 105.551C101.031 110.627 105.948 112.213 107.375 113.006C108.802 113.799 109.754 113.64 110.547 112.688C111.499 111.737 114.354 108.406 115.305 106.82C116.257 105.393 117.367 105.551 118.636 106.027C120.063 106.503 127.359 110.151 128.945 110.944C130.373 111.737 131.483 112.054 131.8 112.688C132.276 113.006 132.276 116.019 131.166 119.508Z" fill="black"/>
<path d="M149.722 0.0793457H50.119C22.5218 0.0793457 0 22.6012 0 50.1983V149.96C0 177.399 22.5218 199.921 50.119 199.921H149.881C177.478 199.921 200 177.399 200 149.802V50.1983C199.841 22.6012 177.32 0.0793457 149.722 0.0793457ZM101.031 159.159C90.2458 159.159 80.2538 156.463 71.3719 151.546L37.4306 162.332L48.5329 129.818C42.9818 120.619 39.8097 109.834 39.8097 98.414C39.8097 64.7899 67.2482 37.6686 101.031 37.6686C134.814 37.6686 162.252 64.7899 162.252 98.414C162.252 132.038 134.814 159.159 101.031 159.159Z" fill="black"/>
</g>
</g>
<defs>
<clipPath id="clip0_410_21">
<rect width="200" height="200" fill="white"/>
</clipPath>
</defs>
</svg>
